<svg xmlns="http://www.w3.org/2000/svg" xmlns:xlink="http://www.w3.org/1999/xlink" width="500" zoomAndPan="magnify" viewBox="0 0 375 374.999991" height="500" preserveAspectRatio="xMidYMid meet" version="1.0"><defs><g/><clipPath id="8ba6d5e0b7"><path d="M 37.5 151.058594 L 110.25 151.058594 L 110.25 223.808594 L 37.5 223.808594 Z M 37.5 151.058594 " clip-rule="nonzero"/></clipPath><clipPath id="32c9b1c691"><path d="M 75.175781 171.84375 C 75.175781 172.015625 75.140625 172.179688 75.074219 172.339844 C 75.007812 172.5 74.914062 172.640625 74.792969 172.761719 C 74.671875 172.882812 74.53125 172.976562 74.371094 173.042969 C 74.214844 173.109375 74.046875 173.140625 73.875 173.140625 C 73.703125 173.140625 73.535156 173.109375 73.378906 173.042969 C 73.21875 172.976562 73.078125 172.882812 72.957031 172.761719 C 72.835938 172.640625 72.742188 172.5 72.675781 172.339844 C 72.609375 172.179688 72.574219 172.015625 72.574219 171.84375 C 72.574219 171.671875 72.609375 171.503906 72.675781 171.34375 C 72.742188 171.1875 72.835938 171.046875 72.957031 170.925781 C 73.078125 170.800781 73.21875 170.707031 73.378906 170.640625 C 73.535156 170.578125 73.703125 170.542969 73.875 170.542969 C 74.046875 170.542969 74.214844 170.578125 74.371094 170.640625 C 74.53125 170.707031 74.671875 170.800781 74.792969 170.925781 C 74.914062 171.046875 75.007812 171.1875 75.074219 171.34375 C 75.140625 171.503906 75.175781 171.671875 75.175781 171.84375 Z M 110.25 187.433594 C 110.25 188.625 110.191406 189.8125 110.074219 190.996094 C 109.957031 192.183594 109.785156 193.359375 109.550781 194.527344 C 109.320312 195.695312 109.03125 196.851562 108.683594 197.992188 C 108.335938 199.132812 107.9375 200.25 107.480469 201.351562 C 107.023438 202.453125 106.515625 203.527344 105.953125 204.578125 C 105.394531 205.628906 104.78125 206.648438 104.121094 207.640625 C 103.457031 208.632812 102.75 209.585938 101.992188 210.507812 C 101.238281 211.429688 100.4375 212.308594 99.597656 213.152344 C 98.753906 213.996094 97.871094 214.792969 96.949219 215.550781 C 96.03125 216.304688 95.074219 217.015625 94.082031 217.675781 C 93.09375 218.339844 92.074219 218.949219 91.023438 219.511719 C 89.972656 220.074219 88.894531 220.582031 87.796875 221.039062 C 86.695312 221.492188 85.574219 221.894531 84.433594 222.242188 C 83.292969 222.585938 82.140625 222.875 80.972656 223.109375 C 79.804688 223.339844 78.625 223.515625 77.441406 223.632812 C 76.253906 223.75 75.066406 223.808594 73.875 223.808594 C 72.683594 223.808594 71.496094 223.75 70.308594 223.632812 C 69.125 223.515625 67.945312 223.339844 66.777344 223.109375 C 65.609375 222.875 64.457031 222.585938 63.316406 222.242188 C 62.175781 221.894531 61.054688 221.492188 59.953125 221.039062 C 58.855469 220.582031 57.777344 220.074219 56.726562 219.511719 C 55.675781 218.949219 54.65625 218.339844 53.667969 217.675781 C 52.675781 217.015625 51.71875 216.304688 50.800781 215.550781 C 49.878906 214.792969 48.996094 213.996094 48.152344 213.152344 C 47.3125 212.308594 46.511719 211.429688 45.757812 210.507812 C 45 209.585938 44.292969 208.632812 43.628906 207.640625 C 42.96875 206.648438 42.355469 205.628906 41.796875 204.578125 C 41.234375 203.527344 40.726562 202.453125 40.269531 201.351562 C 39.8125 200.25 39.414062 199.132812 39.066406 197.992188 C 38.71875 196.851562 38.429688 195.695312 38.199219 194.527344 C 37.964844 193.359375 37.792969 192.183594 37.675781 190.996094 C 37.558594 189.8125 37.5 188.625 37.5 187.433594 C 37.5 186.242188 37.558594 185.050781 37.675781 183.867188 C 37.792969 182.679688 37.964844 181.503906 38.199219 180.335938 C 38.429688 179.167969 38.71875 178.011719 39.066406 176.871094 C 39.414062 175.734375 39.8125 174.613281 40.269531 173.511719 C 40.726562 172.410156 41.234375 171.335938 41.796875 170.285156 C 42.355469 169.234375 42.96875 168.214844 43.628906 167.222656 C 44.292969 166.234375 45 165.277344 45.757812 164.355469 C 46.511719 163.433594 47.3125 162.554688 48.152344 161.710938 C 48.996094 160.867188 49.878906 160.070312 50.800781 159.3125 C 51.71875 158.558594 52.675781 157.847656 53.667969 157.1875 C 54.65625 156.523438 55.675781 155.914062 56.726562 155.351562 C 57.777344 154.789062 58.855469 154.28125 59.953125 153.824219 C 61.054688 153.371094 62.175781 152.96875 63.316406 152.625 C 64.457031 152.277344 65.609375 151.988281 66.777344 151.753906 C 67.945312 151.523438 69.125 151.347656 70.308594 151.230469 C 71.496094 151.117188 72.683594 151.058594 73.875 151.058594 C 75.066406 151.058594 76.253906 151.117188 77.441406 151.230469 C 78.625 151.347656 79.804688 151.523438 80.972656 151.753906 C 82.140625 151.988281 83.292969 152.277344 84.433594 152.625 C 85.574219 152.96875 86.695312 153.371094 87.796875 153.824219 C 88.894531 154.28125 89.972656 154.789062 91.023438 155.351562 C 92.074219 155.914062 93.09375 156.523438 94.082031 157.1875 C 95.074219 157.847656 96.03125 158.558594 96.949219 159.3125 C 97.871094 160.070312 98.753906 160.867188 99.597656 161.710938 C 100.4375 162.554688 101.238281 163.433594 101.992188 164.355469 C 102.75 165.277344 103.457031 166.234375 104.121094 167.222656 C 104.78125 168.214844 105.394531 169.234375 105.953125 170.285156 C 106.515625 171.335938 107.023438 172.410156 107.480469 173.511719 C 107.9375 174.613281 108.335938 175.734375 108.683594 176.871094 C 109.03125 178.011719 109.320312 179.167969 109.550781 180.335938 C 109.785156 181.503906 109.957031 182.679688 110.074219 183.867188 C 110.191406 185.050781 110.25 186.242188 110.25 187.433594 Z M 107.652344 187.433594 C 107.652344 186.324219 107.597656 185.222656 107.488281 184.121094 C 107.378906 183.019531 107.21875 181.925781 107.003906 180.84375 C 106.785156 179.757812 106.519531 178.6875 106.199219 177.628906 C 105.875 176.570312 105.503906 175.527344 105.082031 174.507812 C 104.65625 173.484375 104.183594 172.484375 103.664062 171.507812 C 103.140625 170.535156 102.574219 169.585938 101.960938 168.667969 C 101.34375 167.746094 100.6875 166.859375 99.984375 166.003906 C 99.28125 165.148438 98.539062 164.332031 97.757812 163.546875 C 96.976562 162.765625 96.15625 162.023438 95.304688 161.320312 C 94.449219 160.621094 93.558594 159.960938 92.640625 159.347656 C 91.71875 158.734375 90.773438 158.164062 89.796875 157.644531 C 88.820312 157.121094 87.824219 156.648438 86.800781 156.226562 C 85.777344 155.804688 84.738281 155.429688 83.679688 155.109375 C 82.621094 154.789062 81.550781 154.519531 80.464844 154.304688 C 79.378906 154.089844 78.285156 153.925781 77.1875 153.816406 C 76.085938 153.710938 74.980469 153.65625 73.875 153.65625 C 72.769531 153.65625 71.664062 153.710938 70.5625 153.816406 C 69.464844 153.925781 68.371094 154.089844 67.285156 154.304688 C 66.199219 154.519531 65.128906 154.789062 64.070312 155.109375 C 63.011719 155.429688 61.972656 155.804688 60.949219 156.226562 C 59.925781 156.648438 58.929688 157.121094 57.953125 157.644531 C 56.976562 158.164062 56.03125 158.734375 55.109375 159.347656 C 54.191406 159.960938 53.300781 160.621094 52.445312 161.320312 C 51.59375 162.023438 50.773438 162.765625 49.992188 163.546875 C 49.207031 164.332031 48.46875 165.148438 47.765625 166.003906 C 47.0625 166.859375 46.40625 167.746094 45.789062 168.667969 C 45.175781 169.585938 44.609375 170.535156 44.085938 171.507812 C 43.566406 172.484375 43.09375 173.484375 42.667969 174.507812 C 42.246094 175.527344 41.875 176.570312 41.550781 177.628906 C 41.230469 178.6875 40.964844 179.757812 40.746094 180.84375 C 40.53125 181.925781 40.371094 183.019531 40.261719 184.121094 C 40.152344 185.222656 40.097656 186.324219 40.097656 187.433594 C 40.097656 188.539062 40.152344 189.640625 40.261719 190.742188 C 40.371094 191.84375 40.53125 192.9375 40.746094 194.019531 C 40.964844 195.105469 41.230469 196.179688 41.550781 197.238281 C 41.875 198.296875 42.246094 199.335938 42.667969 200.359375 C 43.09375 201.378906 43.566406 202.378906 44.085938 203.355469 C 44.609375 204.328125 45.175781 205.277344 45.789062 206.195312 C 46.40625 207.117188 47.0625 208.003906 47.765625 208.859375 C 48.46875 209.714844 49.207031 210.535156 49.992188 211.316406 C 50.773438 212.097656 51.59375 212.839844 52.445312 213.542969 C 53.300781 214.242188 54.191406 214.902344 55.109375 215.515625 C 56.03125 216.128906 56.976562 216.699219 57.953125 217.21875 C 58.929688 217.742188 59.925781 218.214844 60.949219 218.636719 C 61.972656 219.0625 63.011719 219.433594 64.070312 219.753906 C 65.128906 220.074219 66.199219 220.34375 67.285156 220.558594 C 68.371094 220.777344 69.464844 220.9375 70.5625 221.046875 C 71.664062 221.15625 72.769531 221.207031 73.875 221.207031 C 74.980469 221.207031 76.085938 221.15625 77.1875 221.046875 C 78.285156 220.9375 79.378906 220.777344 80.464844 220.558594 C 81.550781 220.34375 82.621094 220.074219 83.679688 219.753906 C 84.738281 219.433594 85.777344 219.0625 86.800781 218.636719 C 87.824219 218.214844 88.820312 217.742188 89.796875 217.21875 C 90.773438 216.699219 91.71875 216.128906 92.640625 215.515625 C 93.558594 214.902344 94.449219 214.242188 95.304688 213.542969 C 96.15625 212.839844 96.976562 212.097656 97.757812 211.316406 C 98.542969 210.535156 99.28125 209.714844 99.984375 208.859375 C 100.6875 208.003906 101.34375 207.117188 101.960938 206.195312 C 102.574219 205.277344 103.140625 204.328125 103.664062 203.355469 C 104.183594 202.378906 104.65625 201.378906 105.082031 200.359375 C 105.503906 199.335938 105.875 198.296875 106.199219 197.238281 C 106.519531 196.179688 106.785156 195.105469 107.003906 194.019531 C 107.21875 192.9375 107.378906 191.84375 107.488281 190.742188 C 107.597656 189.640625 107.652344 188.539062 107.652344 187.433594 Z M 105.054688 187.433594 C 105.054688 188.453125 105.003906 189.472656 104.902344 190.488281 C 104.804688 191.503906 104.652344 192.511719 104.453125 193.515625 C 104.253906 194.515625 104.007812 195.503906 103.710938 196.484375 C 103.414062 197.460938 103.070312 198.421875 102.679688 199.363281 C 102.289062 200.308594 101.851562 201.230469 101.371094 202.128906 C 100.890625 203.03125 100.367188 203.90625 99.800781 204.753906 C 99.230469 205.601562 98.625 206.421875 97.976562 207.210938 C 97.328125 208 96.644531 208.757812 95.921875 209.476562 C 95.199219 210.199219 94.445312 210.886719 93.65625 211.535156 C 92.863281 212.179688 92.046875 212.789062 91.195312 213.355469 C 90.347656 213.921875 89.472656 214.449219 88.574219 214.929688 C 87.671875 215.410156 86.75 215.847656 85.804688 216.238281 C 84.863281 216.628906 83.902344 216.972656 82.925781 217.269531 C 81.949219 217.5625 80.960938 217.8125 79.957031 218.011719 C 78.957031 218.210938 77.945312 218.359375 76.929688 218.460938 C 75.914062 218.558594 74.894531 218.609375 73.875 218.609375 C 72.855469 218.609375 71.835938 218.558594 70.820312 218.460938 C 69.804688 218.359375 68.792969 218.210938 67.792969 218.011719 C 66.789062 217.8125 65.800781 217.5625 64.824219 217.269531 C 63.847656 216.972656 62.886719 216.628906 61.945312 216.238281 C 61 215.847656 60.078125 215.410156 59.175781 214.929688 C 58.277344 214.449219 57.402344 213.921875 56.554688 213.355469 C 55.703125 212.789062 54.886719 212.179688 54.09375 211.535156 C 53.304688 210.886719 52.550781 210.199219 51.828125 209.476562 C 51.105469 208.757812 50.421875 208 49.773438 207.210938 C 49.125 206.421875 48.519531 205.601562 47.949219 204.753906 C 47.382812 203.90625 46.859375 203.03125 46.378906 202.128906 C 45.898438 201.230469 45.460938 200.308594 45.070312 199.363281 C 44.679688 198.421875 44.335938 197.460938 44.039062 196.484375 C 43.742188 195.503906 43.496094 194.515625 43.296875 193.515625 C 43.097656 192.511719 42.945312 191.503906 42.847656 190.488281 C 42.746094 189.472656 42.695312 188.453125 42.695312 187.433594 C 42.695312 186.410156 42.746094 185.390625 42.847656 184.375 C 42.945312 183.359375 43.097656 182.351562 43.296875 181.347656 C 43.496094 180.347656 43.742188 179.359375 44.039062 178.382812 C 44.335938 177.402344 44.679688 176.445312 45.070312 175.5 C 45.460938 174.558594 45.898438 173.636719 46.378906 172.734375 C 46.859375 171.832031 47.382812 170.960938 47.949219 170.109375 C 48.519531 169.261719 49.125 168.441406 49.773438 167.652344 C 50.421875 166.863281 51.105469 166.105469 51.828125 165.386719 C 52.550781 164.664062 53.304688 163.976562 54.09375 163.332031 C 54.886719 162.683594 55.703125 162.074219 56.554688 161.507812 C 57.402344 160.941406 58.277344 160.417969 59.175781 159.933594 C 60.078125 159.453125 61 159.015625 61.945312 158.625 C 62.886719 158.234375 63.847656 157.890625 64.824219 157.597656 C 65.800781 157.300781 66.789062 157.050781 67.792969 156.851562 C 68.792969 156.652344 69.804688 156.503906 70.820312 156.402344 C 71.835938 156.304688 72.855469 156.253906 73.875 156.253906 C 74.894531 156.253906 75.914062 156.304688 76.929688 156.402344 C 77.945312 156.503906 78.957031 156.652344 79.957031 156.851562 C 80.960938 157.050781 81.949219 157.300781 82.925781 157.597656 C 83.902344 157.890625 84.863281 158.234375 85.804688 158.625 C 86.75 159.015625 87.671875 159.453125 88.574219 159.933594 C 89.472656 160.417969 90.347656 160.941406 91.195312 161.507812 C 92.046875 162.074219 92.863281 162.683594 93.65625 163.332031 C 94.445312 163.976562 95.199219 164.664062 95.921875 165.386719 C 96.644531 166.105469 97.328125 166.863281 97.976562 167.652344 C 98.625 168.441406 99.230469 169.261719 99.800781 170.109375 C 100.367188 170.960938 100.890625 171.832031 101.371094 172.734375 C 101.851562 173.636719 102.289062 174.558594 102.679688 175.5 C 103.070312 176.445312 103.414062 177.402344 103.710938 178.382812 C 104.007812 179.359375 104.253906 180.347656 104.453125 181.347656 C 104.652344 182.351562 104.804688 183.359375 104.902344 184.375 C 105.003906 185.390625 105.054688 186.410156 105.054688 187.433594 Z M 59.507812 175.738281 L 88.242188 175.738281 L 74.421875 169.359375 C 74.058594 169.191406 73.691406 169.191406 73.328125 169.359375 Z M 92.0625 200.421875 C 92.0625 200.25 92.03125 200.085938 91.964844 199.925781 C 91.898438 199.765625 91.804688 199.625 91.683594 199.503906 C 91.558594 199.382812 91.417969 199.289062 91.261719 199.222656 C 91.101562 199.15625 90.9375 199.125 90.761719 199.125 L 88.164062 199.125 L 88.164062 184.832031 L 80.371094 184.832031 L 80.371094 199.125 L 77.773438 199.125 L 77.773438 184.832031 L 69.976562 184.832031 L 69.976562 199.125 L 67.378906 199.125 L 67.378906 184.832031 L 59.585938 184.832031 L 59.585938 199.125 L 56.988281 199.125 C 56.8125 199.125 56.648438 199.15625 56.488281 199.222656 C 56.332031 199.289062 56.191406 199.382812 56.066406 199.503906 C 55.945312 199.625 55.851562 199.765625 55.785156 199.925781 C 55.71875 200.085938 55.6875 200.25 55.6875 200.421875 L 55.6875 204.320312 C 55.6875 204.492188 55.71875 204.660156 55.785156 204.816406 C 55.851562 204.976562 55.945312 205.117188 56.066406 205.238281 C 56.191406 205.359375 56.332031 205.453125 56.488281 205.519531 C 56.648438 205.585938 56.8125 205.621094 56.988281 205.621094 L 90.761719 205.621094 C 90.9375 205.621094 91.101562 205.585938 91.261719 205.519531 C 91.417969 205.453125 91.558594 205.359375 91.683594 205.238281 C 91.804688 205.117188 91.898438 204.976562 91.964844 204.816406 C 92.03125 204.660156 92.0625 204.492188 92.0625 204.320312 Z M 92.0625 178.339844 C 92.0625 178.164062 92.03125 178 91.964844 177.839844 C 91.898438 177.683594 91.804688 177.542969 91.683594 177.417969 C 91.558594 177.296875 91.417969 177.203125 91.261719 177.136719 C 91.101562 177.070312 90.9375 177.039062 90.761719 177.039062 L 56.988281 177.039062 C 56.8125 177.039062 56.648438 177.070312 56.488281 177.136719 C 56.332031 177.203125 56.191406 177.296875 56.066406 177.417969 C 55.945312 177.542969 55.851562 177.683594 55.785156 177.839844 C 55.71875 178 55.6875 178.164062 55.6875 178.339844 L 55.6875 182.234375 C 55.6875 182.40625 55.71875 182.574219 55.785156 182.734375 C 55.851562 182.890625 55.945312 183.03125 56.066406 183.152344 C 56.191406 183.277344 56.332031 183.371094 56.488281 183.4375 C 56.648438 183.5 56.8125 183.535156 56.988281 183.535156 L 90.761719 183.535156 C 90.9375 183.535156 91.101562 183.5 91.261719 183.4375 C 91.417969 183.371094 91.558594 183.277344 91.683594 183.152344 C 91.804688 183.03125 91.898438 182.890625 91.964844 182.734375 C 92.03125 182.574219 92.0625 182.40625 92.0625 182.234375 Z M 92.0625 178.339844 " clip-rule="nonzero"/></clipPath><linearGradient x1="4" gradientTransform="matrix(1.299107, 0, 0, 1.299107, 32.303574, 145.860456)" y1="32" x2="59.999995" gradientUnits="userSpaceOnUse" y2="32" id="513413313e"><stop stop-opacity="1" stop-color="rgb(48.199463%, 79.998779%, 16.099548%)" offset="0"/><stop stop-opacity="1" stop-color="rgb(48.080444%, 79.930115%, 16.134644%)" offset="0.0078125"/><stop stop-opacity="1" stop-color="rgb(47.845459%, 79.792786%, 16.204834%)" offset="0.015625"/><stop stop-opacity="1" stop-color="rgb(47.608948%, 79.655457%, 16.275024%)" offset="0.0234375"/><stop stop-opacity="1" stop-color="rgb(47.372437%, 79.518127%, 16.345215%)" offset="0.03125"/><stop stop-opacity="1" stop-color="rgb(47.137451%, 79.380798%, 16.415405%)" offset="0.0390625"/><stop stop-opacity="1" stop-color="rgb(46.90094%, 79.243469%, 16.485596%)" offset="0.046875"/><stop stop-opacity="1" stop-color="rgb(46.664429%, 79.10614%, 16.555786%)" offset="0.0546875"/><stop stop-opacity="1" stop-color="rgb(46.429443%, 78.967285%, 16.625977%)" offset="0.0625"/><stop stop-opacity="1" stop-color="rgb(46.192932%, 78.829956%, 16.696167%)" offset="0.0703125"/><stop stop-opacity="1" stop-color="rgb(45.957947%, 78.692627%, 16.767883%)" offset="0.078125"/><stop stop-opacity="1" stop-color="rgb(45.721436%, 78.555298%, 16.838074%)" offset="0.0859375"/><stop stop-opacity="1" stop-color="rgb(45.484924%, 78.417969%, 16.908264%)" offset="0.09375"/><stop stop-opacity="1" stop-color="rgb(45.249939%, 78.28064%, 16.978455%)" offset="0.101563"/><stop stop-opacity="1" stop-color="rgb(45.013428%, 78.143311%, 17.048645%)" offset="0.109375"/><stop stop-opacity="1" stop-color="rgb(44.776917%, 78.005981%, 17.118835%)" offset="0.117188"/><stop stop-opacity="1" stop-color="rgb(44.541931%, 77.868652%, 17.189026%)" offset="0.125"/><stop stop-opacity="1" stop-color="rgb(44.30542%, 77.729797%, 17.259216%)" offset="0.132812"/><stop stop-opacity="1" stop-color="rgb(44.070435%, 77.592468%, 17.329407%)" offset="0.140625"/><stop stop-opacity="1" stop-color="rgb(43.833923%, 77.455139%, 17.399597%)" offset="0.148437"/><stop stop-opacity="1" stop-color="rgb(43.597412%, 77.31781%, 17.469788%)" offset="0.15625"/><stop stop-opacity="1" stop-color="rgb(43.362427%, 77.180481%, 17.539978%)" offset="0.164062"/><stop stop-opacity="1" stop-color="rgb(43.125916%, 77.043152%, 17.610168%)" offset="0.171875"/><stop stop-opacity="1" stop-color="rgb(42.89093%, 76.905823%, 17.681885%)" offset="0.179687"/><stop stop-opacity="1" stop-color="rgb(42.654419%, 76.768494%, 17.752075%)" offset="0.1875"/><stop stop-opacity="1" stop-color="rgb(42.417908%, 76.631165%, 17.822266%)" offset="0.195312"/><stop stop-opacity="1" stop-color="rgb(42.182922%, 76.49231%, 17.892456%)" offset="0.203125"/><stop stop-opacity="1" stop-color="rgb(41.946411%, 76.35498%, 17.962646%)" offset="0.210937"/><stop stop-opacity="1" stop-color="rgb(41.7099%, 76.217651%, 18.032837%)" offset="0.21875"/><stop stop-opacity="1" stop-color="rgb(41.474915%, 76.080322%, 18.103027%)" offset="0.226562"/><stop stop-opacity="1" stop-color="rgb(41.238403%, 75.942993%, 18.173218%)" offset="0.234375"/><stop stop-opacity="1" stop-color="rgb(41.003418%, 75.805664%, 18.243408%)" offset="0.242187"/><stop stop-opacity="1" stop-color="rgb(40.766907%, 75.668335%, 18.313599%)" offset="0.25"/><stop stop-opacity="1" stop-color="rgb(40.530396%, 75.531006%, 18.383789%)" offset="0.257812"/><stop stop-opacity="1" stop-color="rgb(40.29541%, 75.392151%, 18.453979%)" offset="0.265625"/><stop stop-opacity="1" stop-color="rgb(40.058899%, 75.254822%, 18.525696%)" offset="0.273438"/><stop stop-opacity="1" stop-color="rgb(39.822388%, 75.117493%, 18.595886%)" offset="0.28125"/><stop stop-opacity="1" stop-color="rgb(39.587402%, 74.980164%, 18.666077%)" offset="0.289063"/><stop stop-opacity="1" stop-color="rgb(39.350891%, 74.842834%, 18.736267%)" offset="0.296875"/><stop stop-opacity="1" stop-color="rgb(39.115906%, 74.705505%, 18.806458%)" offset="0.304688"/><stop stop-opacity="1" stop-color="rgb(38.879395%, 74.568176%, 18.876648%)" offset="0.3125"/><stop stop-opacity="1" stop-color="rgb(38.642883%, 74.430847%, 18.946838%)" offset="0.320313"/><stop stop-opacity="1" stop-color="rgb(38.407898%, 74.293518%, 19.017029%)" offset="0.328125"/><stop stop-opacity="1" stop-color="rgb(38.171387%, 74.154663%, 19.087219%)" offset="0.335937"/><stop stop-opacity="1" stop-color="rgb(37.934875%, 74.017334%, 19.15741%)" offset="0.34375"/><stop stop-opacity="1" stop-color="rgb(37.69989%, 73.880005%, 19.2276%)" offset="0.351562"/><stop stop-opacity="1" stop-color="rgb(37.463379%, 73.742676%, 19.297791%)" offset="0.359375"/><stop stop-opacity="1" stop-color="rgb(37.228394%, 73.605347%, 19.367981%)" offset="0.367187"/><stop stop-opacity="1" stop-color="rgb(36.991882%, 73.468018%, 19.439697%)" offset="0.375"/><stop stop-opacity="1" stop-color="rgb(36.755371%, 73.330688%, 19.509888%)" offset="0.382812"/><stop stop-opacity="1" stop-color="rgb(36.520386%, 73.193359%, 19.580078%)" offset="0.390625"/><stop stop-opacity="1" stop-color="rgb(36.283875%, 73.05603%, 19.650269%)" offset="0.398437"/><stop stop-opacity="1" stop-color="rgb(36.047363%, 72.917175%, 19.720459%)" offset="0.40625"/><stop stop-opacity="1" stop-color="rgb(35.812378%, 72.779846%, 19.790649%)" offset="0.414062"/><stop stop-opacity="1" stop-color="rgb(35.575867%, 72.642517%, 19.86084%)" offset="0.421875"/><stop stop-opacity="1" stop-color="rgb(35.340881%, 72.505188%, 19.93103%)" offset="0.429687"/><stop stop-opacity="1" stop-color="rgb(35.10437%, 72.367859%, 20.001221%)" offset="0.4375"/><stop stop-opacity="1" stop-color="rgb(34.867859%, 72.23053%, 20.071411%)" offset="0.445312"/><stop stop-opacity="1" stop-color="rgb(34.632874%, 72.093201%, 20.141602%)" offset="0.453125"/><stop stop-opacity="1" stop-color="rgb(34.396362%, 71.955872%, 20.211792%)" offset="0.460937"/><stop stop-opacity="1" stop-color="rgb(34.159851%, 71.818542%, 20.283508%)" offset="0.46875"/><stop stop-opacity="1" stop-color="rgb(33.924866%, 71.679688%, 20.353699%)" offset="0.476562"/><stop stop-opacity="1" stop-color="rgb(33.688354%, 71.542358%, 20.423889%)" offset="0.484375"/><stop stop-opacity="1" stop-color="rgb(33.453369%, 71.405029%, 20.49408%)" offset="0.492188"/><stop stop-opacity="1" stop-color="rgb(33.216858%, 71.2677%, 20.56427%)" offset="0.5"/><stop stop-opacity="1" stop-color="rgb(32.980347%, 71.130371%, 20.63446%)" offset="0.507812"/><stop stop-opacity="1" stop-color="rgb(32.745361%, 70.993042%, 20.704651%)" offset="0.515625"/><stop stop-opacity="1" stop-color="rgb(32.50885%, 70.855713%, 20.774841%)" offset="0.523438"/><stop stop-opacity="1" stop-color="rgb(32.272339%, 70.718384%, 20.845032%)" offset="0.53125"/><stop stop-opacity="1" stop-color="rgb(32.037354%, 70.581055%, 20.915222%)" offset="0.539063"/><stop stop-opacity="1" stop-color="rgb(31.800842%, 70.4422%, 20.985413%)" offset="0.546875"/><stop stop-opacity="1" stop-color="rgb(31.565857%, 70.304871%, 21.055603%)" offset="0.554688"/><stop stop-opacity="1" stop-color="rgb(31.329346%, 70.167542%, 21.125793%)" offset="0.5625"/><stop stop-opacity="1" stop-color="rgb(31.092834%, 70.030212%, 21.19751%)" offset="0.570312"/><stop stop-opacity="1" stop-color="rgb(30.857849%, 69.892883%, 21.2677%)" offset="0.578125"/><stop stop-opacity="1" stop-color="rgb(30.621338%, 69.755554%, 21.337891%)" offset="0.585938"/><stop stop-opacity="1" stop-color="rgb(30.384827%, 69.618225%, 21.408081%)" offset="0.59375"/><stop stop-opacity="1" stop-color="rgb(30.149841%, 69.480896%, 21.478271%)" offset="0.601562"/><stop stop-opacity="1" stop-color="rgb(29.91333%, 69.343567%, 21.548462%)" offset="0.609375"/><stop stop-opacity="1" stop-color="rgb(29.678345%, 69.204712%, 21.618652%)" offset="0.617188"/><stop stop-opacity="1" stop-color="rgb(29.441833%, 69.067383%, 21.688843%)" offset="0.625"/><stop stop-opacity="1" stop-color="rgb(29.205322%, 68.930054%, 21.759033%)" offset="0.632812"/><stop stop-opacity="1" stop-color="rgb(28.970337%, 68.792725%, 21.829224%)" offset="0.640625"/><stop stop-opacity="1" stop-color="rgb(28.733826%, 68.655396%, 21.899414%)" offset="0.648438"/><stop stop-opacity="1" stop-color="rgb(28.497314%, 68.518066%, 21.969604%)" offset="0.65625"/><stop stop-opacity="1" stop-color="rgb(28.262329%, 68.380737%, 22.041321%)" offset="0.664062"/><stop stop-opacity="1" stop-color="rgb(28.025818%, 68.243408%, 22.111511%)" offset="0.671875"/><stop stop-opacity="1" stop-color="rgb(27.790833%, 68.106079%, 22.181702%)" offset="0.679688"/><stop stop-opacity="1" stop-color="rgb(27.554321%, 67.967224%, 22.251892%)" offset="0.6875"/><stop stop-opacity="1" stop-color="rgb(27.31781%, 67.829895%, 22.322083%)" offset="0.695312"/><stop stop-opacity="1" stop-color="rgb(27.082825%, 67.692566%, 22.392273%)" offset="0.703125"/><stop stop-opacity="1" stop-color="rgb(26.846313%, 67.555237%, 22.462463%)" offset="0.710938"/><stop stop-opacity="1" stop-color="rgb(26.609802%, 67.417908%, 22.532654%)" offset="0.71875"/><stop stop-opacity="1" stop-color="rgb(26.374817%, 67.280579%, 22.602844%)" offset="0.726562"/><stop stop-opacity="1" stop-color="rgb(26.138306%, 67.14325%, 22.673035%)" offset="0.734375"/><stop stop-opacity="1" stop-color="rgb(25.90332%, 67.00592%, 22.743225%)" offset="0.742188"/><stop stop-opacity="1" stop-color="rgb(25.666809%, 66.868591%, 22.813416%)" offset="0.75"/><stop stop-opacity="1" stop-color="rgb(25.430298%, 66.729736%, 22.883606%)" offset="0.757812"/><stop stop-opacity="1" stop-color="rgb(25.195312%, 66.592407%, 22.955322%)" offset="0.765625"/><stop stop-opacity="1" stop-color="rgb(24.958801%, 66.455078%, 23.025513%)" offset="0.773437"/><stop stop-opacity="1" stop-color="rgb(24.72229%, 66.317749%, 23.095703%)" offset="0.78125"/><stop stop-opacity="1" stop-color="rgb(24.487305%, 66.18042%, 23.165894%)" offset="0.789062"/><stop stop-opacity="1" stop-color="rgb(24.250793%, 66.043091%, 23.236084%)" offset="0.796875"/><stop stop-opacity="1" stop-color="rgb(24.015808%, 65.905762%, 23.306274%)" offset="0.804688"/><stop stop-opacity="1" stop-color="rgb(23.779297%, 65.768433%, 23.376465%)" offset="0.8125"/><stop stop-opacity="1" stop-color="rgb(23.542786%, 65.631104%, 23.446655%)" offset="0.820313"/><stop stop-opacity="1" stop-color="rgb(23.3078%, 65.492249%, 23.516846%)" offset="0.828125"/><stop stop-opacity="1" stop-color="rgb(23.071289%, 65.354919%, 23.587036%)" offset="0.835938"/><stop stop-opacity="1" stop-color="rgb(22.834778%, 65.21759%, 23.657227%)" offset="0.84375"/><stop stop-opacity="1" stop-color="rgb(22.599792%, 65.080261%, 23.727417%)" offset="0.851562"/><stop stop-opacity="1" stop-color="rgb(22.363281%, 64.942932%, 23.799133%)" offset="0.859375"/><stop stop-opacity="1" stop-color="rgb(22.128296%, 64.805603%, 23.869324%)" offset="0.867188"/><stop stop-opacity="1" stop-color="rgb(21.891785%, 64.668274%, 23.939514%)" offset="0.875"/><stop stop-opacity="1" stop-color="rgb(21.655273%, 64.530945%, 24.009705%)" offset="0.882813"/><stop stop-opacity="1" stop-color="rgb(21.420288%, 64.393616%, 24.079895%)" offset="0.890625"/><stop stop-opacity="1" stop-color="rgb(21.183777%, 64.254761%, 24.150085%)" offset="0.898438"/><stop stop-opacity="1" stop-color="rgb(20.947266%, 64.117432%, 24.220276%)" offset="0.90625"/><stop stop-opacity="1" stop-color="rgb(20.71228%, 63.980103%, 24.290466%)" offset="0.914062"/><stop stop-opacity="1" stop-color="rgb(20.475769%, 63.842773%, 24.360657%)" offset="0.921875"/><stop stop-opacity="1" stop-color="rgb(20.240784%, 63.705444%, 24.430847%)" offset="0.929688"/><stop stop-opacity="1" stop-color="rgb(20.004272%, 63.568115%, 24.501038%)" offset="0.9375"/><stop stop-opacity="1" stop-color="rgb(19.767761%, 63.430786%, 24.571228%)" offset="0.945312"/><stop stop-opacity="1" stop-color="rgb(19.532776%, 63.293457%, 24.641418%)" offset="0.953125"/><stop stop-opacity="1" stop-color="rgb(19.296265%, 63.156128%, 24.713135%)" offset="0.960938"/><stop stop-opacity="1" stop-color="rgb(19.059753%, 63.017273%, 24.783325%)" offset="0.96875"/><stop stop-opacity="1" stop-color="rgb(18.824768%, 62.879944%, 24.853516%)" offset="0.976562"/><stop stop-opacity="1" stop-color="rgb(18.588257%, 62.742615%, 24.923706%)" offset="0.984375"/><stop stop-opacity="1" stop-color="rgb(18.353271%, 62.605286%, 24.993896%)" offset="0.992188"/><stop stop-opacity="1" stop-color="rgb(18.11676%, 62.467957%, 25.064087%)" offset="1"/></linearGradient></defs><rect x="-37.5" width="450" fill="#ffffff" y="-37.499999" height="449.999989" fill-opacity="1"/><rect x="-37.5" width="450" fill="#ffffff" y="-37.499999" height="449.999989" fill-opacity="1"/><g clip-path="url(#8ba6d5e0b7)"><g clip-path="url(#32c9b1c691)"><path fill="url(#513413313e)" d="M 37.5 151.058594 L 37.5 223.808594 L 110.25 223.808594 L 110.25 151.058594 Z M 37.5 151.058594 " fill-rule="nonzero"/></g></g><g fill="#47ae38" fill-opacity="1"><g transform="translate(113.906248, 203.999987)"><g><path d="M 2.203125 0 L 2.203125 -28.484375 L 16.71875 -28.484375 C 19.894531 -28.484375 22.34375 -27.804688 24.0625 -26.453125 C 25.78125 -25.109375 26.640625 -23.195312 26.640625 -20.71875 C 26.640625 -19.144531 26.222656 -17.832031 25.390625 -16.78125 C 24.566406 -15.726562 23.382812 -15 21.84375 -14.59375 L 21.84375 -14.5625 C 23.570312 -14.21875 24.910156 -13.476562 25.859375 -12.34375 C 26.804688 -11.207031 27.28125 -9.734375 27.28125 -7.921875 C 27.28125 -5.410156 26.390625 -3.460938 24.609375 -2.078125 C 22.835938 -0.691406 20.328125 0 17.078125 0 Z M 9.046875 -16.6875 L 15.640625 -16.6875 C 16.972656 -16.6875 18.003906 -16.984375 18.734375 -17.578125 C 19.472656 -18.179688 19.84375 -19.03125 19.84375 -20.125 C 19.84375 -21.164062 19.472656 -21.976562 18.734375 -22.5625 C 18.003906 -23.144531 16.972656 -23.4375 15.640625 -23.4375 L 9.046875 -23.4375 Z M 9.046875 -5.078125 L 15.84375 -5.078125 C 17.332031 -5.078125 18.476562 -5.382812 19.28125 -6 C 20.082031 -6.613281 20.484375 -7.476562 20.484375 -8.59375 C 20.484375 -9.800781 20.082031 -10.722656 19.28125 -11.359375 C 18.476562 -11.992188 17.332031 -12.3125 15.84375 -12.3125 L 9.046875 -12.3125 Z M 9.046875 -5.078125 "/></g></g></g><g fill="#47ae38" fill-opacity="1"><g transform="translate(142.183442, 203.999987)"><g><path d="M 7.921875 0.59375 C 5.785156 0.59375 4.03125 0.0625 2.65625 -1 C 1.28125 -2.0625 0.59375 -3.472656 0.59375 -5.234375 C 0.59375 -6.992188 1.351562 -8.472656 2.875 -9.671875 C 4.394531 -10.878906 6.691406 -11.640625 9.765625 -11.953125 L 13.71875 -12.4375 C 14.195312 -12.488281 14.582031 -12.640625 14.875 -12.890625 C 15.164062 -13.148438 15.3125 -13.492188 15.3125 -13.921875 C 15.3125 -14.796875 14.960938 -15.5 14.265625 -16.03125 C 13.578125 -16.570312 12.6875 -16.84375 11.59375 -16.84375 C 10.375 -16.84375 9.363281 -16.460938 8.5625 -15.703125 C 7.757812 -14.941406 7.304688 -14.054688 7.203125 -13.046875 L 1.234375 -13.953125 C 1.367188 -15.367188 1.867188 -16.628906 2.734375 -17.734375 C 3.609375 -18.847656 4.789062 -19.71875 6.28125 -20.34375 C 7.769531 -20.96875 9.488281 -21.28125 11.4375 -21.28125 C 14.445312 -21.28125 16.84375 -20.539062 18.625 -19.0625 C 20.414062 -17.582031 21.3125 -15.5625 21.3125 -13 L 21.3125 -5.078125 C 21.3125 -4.085938 21.660156 -3.59375 22.359375 -3.59375 C 22.941406 -3.59375 23.472656 -3.898438 23.953125 -4.515625 L 25.40625 -1.28125 C 24.789062 -0.664062 23.992188 -0.203125 23.015625 0.109375 C 22.046875 0.429688 21.09375 0.59375 20.15625 0.59375 C 18.925781 0.59375 17.875 0.257812 17 -0.40625 C 16.125 -1.070312 15.617188 -1.867188 15.484375 -2.796875 L 15.40625 -3.515625 L 15.359375 -3.515625 C 14.691406 -2.296875 13.71875 -1.304688 12.4375 -0.546875 C 11.15625 0.210938 9.648438 0.59375 7.921875 0.59375 Z M 10.234375 -3.59375 C 11.679688 -3.59375 12.867188 -4.039062 13.796875 -4.9375 C 14.734375 -5.832031 15.203125 -6.972656 15.203125 -8.359375 L 15.203125 -9.203125 L 11.28125 -8.765625 C 9.570312 -8.578125 8.382812 -8.226562 7.71875 -7.71875 C 7.050781 -7.207031 6.71875 -6.617188 6.71875 -5.953125 C 6.71875 -5.265625 7.050781 -4.695312 7.71875 -4.25 C 8.382812 -3.8125 9.222656 -3.59375 10.234375 -3.59375 Z M 10.234375 -3.59375 "/></g></g></g><g fill="#47ae38" fill-opacity="1"><g transform="translate(167.580913, 203.999987)"><g><path d="M 15 -21.078125 C 17.101562 -21.078125 18.753906 -20.460938 19.953125 -19.234375 C 21.160156 -18.015625 21.765625 -16.3125 21.765625 -14.125 L 21.765625 0 L 15.640625 0 L 15.640625 -12.234375 C 15.640625 -13.410156 15.332031 -14.332031 14.71875 -15 C 14.101562 -15.664062 13.265625 -16 12.203125 -16 C 10.890625 -16 9.8125 -15.570312 8.96875 -14.71875 C 8.132812 -13.863281 7.71875 -12.726562 7.71875 -11.3125 L 7.71875 0 L 1.59375 0 L 1.59375 -20.484375 L 6.765625 -20.484375 L 7.6875 -16.765625 L 7.71875 -16.765625 C 8.46875 -18.148438 9.460938 -19.210938 10.703125 -19.953125 C 11.941406 -20.703125 13.375 -21.078125 15 -21.078125 Z M 15 -21.078125 "/></g></g></g><g fill="#47ae38" fill-opacity="1"><g transform="translate(190.818609, 203.999987)"><g><path d="M 1.59375 0 L 1.59375 -29.6875 L 7.71875 -29.6875 L 7.71875 -13.125 L 7.765625 -13.125 L 14.59375 -20.484375 L 21.71875 -20.484375 L 14.046875 -12.640625 L 22.078125 0 L 15.3125 0 L 10 -8.953125 L 7.71875 -6.5625 L 7.71875 0 Z M 1.59375 0 "/></g></g></g><g fill="#47ae38" fill-opacity="1"><g transform="translate(212.896412, 203.999987)"><g><path d="M 2.203125 0 L 2.203125 -28.484375 L 16.71875 -28.484375 C 19.894531 -28.484375 22.34375 -27.804688 24.0625 -26.453125 C 25.78125 -25.109375 26.640625 -23.195312 26.640625 -20.71875 C 26.640625 -19.144531 26.222656 -17.832031 25.390625 -16.78125 C 24.566406 -15.726562 23.382812 -15 21.84375 -14.59375 L 21.84375 -14.5625 C 23.570312 -14.21875 24.910156 -13.476562 25.859375 -12.34375 C 26.804688 -11.207031 27.28125 -9.734375 27.28125 -7.921875 C 27.28125 -5.410156 26.390625 -3.460938 24.609375 -2.078125 C 22.835938 -0.691406 20.328125 0 17.078125 0 Z M 9.046875 -16.6875 L 15.640625 -16.6875 C 16.972656 -16.6875 18.003906 -16.984375 18.734375 -17.578125 C 19.472656 -18.179688 19.84375 -19.03125 19.84375 -20.125 C 19.84375 -21.164062 19.472656 -21.976562 18.734375 -22.5625 C 18.003906 -23.144531 16.972656 -23.4375 15.640625 -23.4375 L 9.046875 -23.4375 Z M 9.046875 -5.078125 L 15.84375 -5.078125 C 17.332031 -5.078125 18.476562 -5.382812 19.28125 -6 C 20.082031 -6.613281 20.484375 -7.476562 20.484375 -8.59375 C 20.484375 -9.800781 20.082031 -10.722656 19.28125 -11.359375 C 18.476562 -11.992188 17.332031 -12.3125 15.84375 -12.3125 L 9.046875 -12.3125 Z M 9.046875 -5.078125 "/></g></g></g><g fill="#47ae38" fill-opacity="1"><g transform="translate(241.173606, 203.999987)"><g><path d="M 8.234375 0.59375 C 6.128906 0.59375 4.476562 -0.015625 3.28125 -1.234375 C 2.082031 -2.460938 1.484375 -4.171875 1.484375 -6.359375 L 1.484375 -20.484375 L 7.59375 -20.484375 L 7.59375 -8.234375 C 7.59375 -7.085938 7.898438 -6.175781 8.515625 -5.5 C 9.128906 -4.820312 9.972656 -4.484375 11.046875 -4.484375 C 12.378906 -4.484375 13.457031 -4.914062 14.28125 -5.78125 C 15.101562 -6.644531 15.515625 -7.769531 15.515625 -9.15625 L 15.515625 -20.484375 L 21.640625 -20.484375 L 21.640625 0 L 16.484375 0 L 15.5625 -3.71875 L 15.515625 -3.71875 C 14.773438 -2.332031 13.785156 -1.265625 12.546875 -0.515625 C 11.304688 0.222656 9.867188 0.59375 8.234375 0.59375 Z M 8.234375 0.59375 "/></g></g></g><g fill="#47ae38" fill-opacity="1"><g transform="translate(264.451287, 203.999987)"><g><path d="M 10.046875 0.59375 C 8.253906 0.59375 6.671875 0.140625 5.296875 -0.765625 C 3.921875 -1.671875 2.847656 -2.9375 2.078125 -4.5625 C 1.304688 -6.1875 0.921875 -8.078125 0.921875 -10.234375 C 0.921875 -12.421875 1.304688 -14.320312 2.078125 -15.9375 C 2.847656 -17.550781 3.921875 -18.8125 5.296875 -19.71875 C 6.671875 -20.625 8.253906 -21.078125 10.046875 -21.078125 C 13.296875 -21.078125 15.65625 -19.570312 17.125 -16.5625 L 17.15625 -16.5625 L 17.15625 -29.6875 L 23.28125 -29.6875 L 23.28125 0 L 18.15625 0 L 17.234375 -3.921875 L 17.203125 -3.921875 C 16.484375 -2.453125 15.507812 -1.332031 14.28125 -0.5625 C 13.050781 0.207031 11.640625 0.59375 10.046875 0.59375 Z M 12.203125 -4.5625 C 13.210938 -4.5625 14.109375 -4.8125 14.890625 -5.3125 C 15.679688 -5.820312 16.296875 -6.503906 16.734375 -7.359375 C 17.179688 -8.210938 17.40625 -9.171875 17.40625 -10.234375 C 17.40625 -11.867188 16.914062 -13.222656 15.9375 -14.296875 C 14.96875 -15.378906 13.722656 -15.921875 12.203125 -15.921875 C 10.703125 -15.921875 9.457031 -15.378906 8.46875 -14.296875 C 7.488281 -13.222656 7 -11.867188 7 -10.234375 C 7 -8.609375 7.488281 -7.253906 8.46875 -6.171875 C 9.457031 -5.097656 10.703125 -4.5625 12.203125 -4.5625 Z M 12.203125 -4.5625 "/></g></g></g><g fill="#47ae38" fill-opacity="1"><g transform="translate(289.328819, 203.999987)"><g><path d="M 10.046875 0.59375 C 8.253906 0.59375 6.671875 0.140625 5.296875 -0.765625 C 3.921875 -1.671875 2.847656 -2.9375 2.078125 -4.5625 C 1.304688 -6.1875 0.921875 -8.078125 0.921875 -10.234375 C 0.921875 -12.421875 1.304688 -14.320312 2.078125 -15.9375 C 2.847656 -17.550781 3.921875 -18.8125 5.296875 -19.71875 C 6.671875 -20.625 8.253906 -21.078125 10.046875 -21.078125 C 13.296875 -21.078125 15.65625 -19.570312 17.125 -16.5625 L 17.15625 -16.5625 L 17.15625 -29.6875 L 23.28125 -29.6875 L 23.28125 0 L 18.15625 0 L 17.234375 -3.921875 L 17.203125 -3.921875 C 16.484375 -2.453125 15.507812 -1.332031 14.28125 -0.5625 C 13.050781 0.207031 11.640625 0.59375 10.046875 0.59375 Z M 12.203125 -4.5625 C 13.210938 -4.5625 14.109375 -4.8125 14.890625 -5.3125 C 15.679688 -5.820312 16.296875 -6.503906 16.734375 -7.359375 C 17.179688 -8.210938 17.40625 -9.171875 17.40625 -10.234375 C 17.40625 -11.867188 16.914062 -13.222656 15.9375 -14.296875 C 14.96875 -15.378906 13.722656 -15.921875 12.203125 -15.921875 C 10.703125 -15.921875 9.457031 -15.378906 8.46875 -14.296875 C 7.488281 -13.222656 7 -11.867188 7 -10.234375 C 7 -8.609375 7.488281 -7.253906 8.46875 -6.171875 C 9.457031 -5.097656 10.703125 -4.5625 12.203125 -4.5625 Z M 12.203125 -4.5625 "/></g></g></g><g fill="#47ae38" fill-opacity="1"><g transform="translate(314.206361, 203.999987)"><g><path d="M 9.6875 9.203125 C 7.519531 9.203125 5.53125 8.859375 3.71875 8.171875 C 1.90625 7.492188 0.492188 6.582031 -0.515625 5.4375 L 1.71875 1 C 2.570312 1.9375 3.65625 2.691406 4.96875 3.265625 C 6.289062 3.835938 7.6875 4.125 9.15625 4.125 C 11.132812 4.125 12.703125 3.609375 13.859375 2.578125 C 15.015625 1.554688 15.59375 0.164062 15.59375 -1.59375 L 15.59375 -3.359375 L 15.5625 -3.359375 C 14.914062 -2.054688 14.003906 -1.035156 12.828125 -0.296875 C 11.660156 0.429688 10.367188 0.796875 8.953125 0.796875 C 6.691406 0.796875 4.894531 0.0546875 3.5625 -1.421875 C 2.226562 -2.898438 1.5625 -4.851562 1.5625 -7.28125 L 1.5625 -20.484375 L 7.640625 -20.484375 L 7.640625 -8.359375 C 7.640625 -7.128906 7.957031 -6.117188 8.59375 -5.328125 C 9.238281 -4.546875 10.132812 -4.15625 11.28125 -4.15625 C 12.476562 -4.15625 13.488281 -4.578125 14.3125 -5.421875 C 15.144531 -6.265625 15.5625 -7.351562 15.5625 -8.6875 L 15.5625 -20.484375 L 21.6875 -20.484375 L 21.6875 -1.40625 C 21.6875 0.757812 21.1875 2.632812 20.1875 4.21875 C 19.1875 5.800781 17.789062 7.023438 16 7.890625 C 14.207031 8.765625 12.101562 9.203125 9.6875 9.203125 Z M 9.6875 9.203125 "/></g></g></g></svg>